<svg xmlns="http://www.w3.org/2000/svg" viewBox="0 0 512 512"><title>Trash</title><g id="Trash"><g id="Trash-2" data-name="Trash"><path d="M256,73.8247A182.1753,182.1753,0,1,0,438.18,256.0036,182.1849,182.1849,0,0,0,256,73.8247ZM175.8964,194.5858c0-16.5141,9.9756-29.9,22.28-29.9H301.9225c12.2967,0,22.2714,13.3857,22.2714,29.9v.4662H175.8964Zm152.0685,36.5013L309.064,350.6359a13.0868,13.0868,0,0,1-12.924,11.0394H203.9557a13.0838,13.0838,0,0,1-12.92-11.0394L172.1344,231.0871a13.07,13.07,0,0,1,12.92-15.1263H315.0409a13.0827,13.0827,0,0,1,12.924,15.1263Z"/><path d="M250.05,343.939a7.4857,7.4857,0,0,1-7.48-7.48V246.7579a7.475,7.475,0,1,1,14.95,0v89.7012A7.48,7.48,0,0,1,250.05,343.939Z"/><path d="M212.7181,343.939a7.4761,7.4761,0,0,1-7.4358-6.8292l-7.8174-89.3673a7.4746,7.4746,0,0,1,14.8932-1.2924l7.8174,89.35a7.48,7.48,0,0,1-6.7941,8.1027C213.1573,343.921,212.9377,343.939,212.7181,343.939Z"/><path d="M286.4191,343.939c-.2115,0-.4392-.018-.66-.036a7.4767,7.4767,0,0,1-6.7932-8.1027l7.8129-89.35a7.4723,7.4723,0,0,1,14.8887,1.2924L293.8549,337.11A7.4678,7.4678,0,0,1,286.4191,343.939Z"/></g></g></svg>